<svg xmlns="http://www.w3.org/2000/svg" xmlns:xlink="http://www.w3.org/1999/xlink" width="133.047" height="133.047" viewBox="0 0 133.047 133.047"><defs><style>.a{fill:#182039;}.b{filter:url(#a);}</style><filter id="a" x="0" y="0" width="133.047" height="133.047" filterUnits="userSpaceOnUse"><feOffset dx="6" dy="3" input="SourceAlpha"/><feGaussianBlur stdDeviation="2.5" result="b"/><feFlood flood-opacity="0.161"/><feComposite operator="in" in2="b"/><feComposite in="SourceGraphic"/></filter></defs><g class="b" transform="matrix(1, 0, 0, 1, 0, 0)"><path class="a" d="M126.047,67.024A59.024,59.024,0,1,1,67.024,8,59.024,59.024,0,0,1,126.047,67.024ZM92.335,58.615c1.175-7.854-4.805-12.076-12.983-14.892L82,33.084,75.528,31.47,72.945,41.829c-1.7-.424-3.451-.824-5.189-1.221l2.6-10.427-6.473-1.614L61.23,39.2c-1.409-.321-2.793-.638-4.136-.972L57.1,38.2l-8.932-2.23-1.723,6.917s4.805,1.1,4.7,1.169c2.623.655,3.1,2.39,3.018,3.766l-3.022,12.12a5.371,5.371,0,0,1,.673.216c-.216-.054-.446-.113-.684-.17L46.9,76.964A2.358,2.358,0,0,1,43.932,78.5c.065.094-4.708-1.175-4.708-1.175L36.009,84.74l8.428,2.1c1.568.393,3.1.8,4.617,1.191l-2.68,10.761,6.469,1.614L55.5,89.761q2.573.7,5.162,1.339l-2.645,10.6,6.477,1.614,2.68-10.74c11.044,2.09,19.349,1.247,22.845-8.741,2.817-8.042-.14-12.681-5.951-15.706,4.232-.975,7.419-3.758,8.27-9.508Zm-14.8,20.748c-2,8.042-15.543,3.694-19.934,2.6L61.16,67.712C65.55,68.808,79.628,70.977,77.537,79.364Zm2-20.865c-1.826,7.315-13.1,3.6-16.753,2.687l3.224-12.93C69.667,49.168,81.442,50.868,79.54,58.5Z" transform="translate(-6.5 -3.5)"/></g></svg>