<svg xmlns="http://www.w3.org/2000/svg" xmlns:xlink="http://www.w3.org/1999/xlink" width="90.789" height="89.787" viewBox="0 0 90.789 89.787"><defs><style>.a{fill:#fff;}.b{filter:url(#a);}</style><filter id="a" x="0" y="0" width="90.789" height="89.787" filterUnits="userSpaceOnUse"><feOffset dx="7" dy="3" input="SourceAlpha"/><feGaussianBlur stdDeviation="2" result="b"/><feFlood flood-opacity="0.161"/><feComposite operator="in" in2="b"/><feComposite in="SourceGraphic"/></filter></defs><g class="b" transform="matrix(1, 0, 0, 1, 0, 0)"><path class="a" d="M14.264,44.061A49.686,49.686,0,0,0,.017,73.7l0,.035a3.647,3.647,0,0,0,4.025,4.028A49.683,49.683,0,0,0,33.714,63.511L45.169,52.056,25.72,32.606,14.264,44.061ZM73.75,4.025a13.754,13.754,0,0,0-19.45,0L50.994,7.331,45.44,1.778a6.076,6.076,0,0,0-8.593,0L21.028,17.6a2.431,2.431,0,0,0,0,3.438l3.437,3.437a2.431,2.431,0,0,0,3.438,0l13.24-13.24,2.976,2.976L29.158,29.168l19.45,19.45L73.75,23.475a13.754,13.754,0,0,0,0-19.45Z" transform="translate(0.01 3)"/></g></svg>