<svg xmlns="http://www.w3.org/2000/svg" xmlns:xlink="http://www.w3.org/1999/xlink" width="101.901" height="89.788" viewBox="0 0 101.901 89.788"><defs><style>.a{fill:#182039;}.b{filter:url(#a);}</style><filter id="a" x="0" y="0" width="101.901" height="89.788" filterUnits="userSpaceOnUse"><feOffset dx="7" dy="3" input="SourceAlpha"/><feGaussianBlur stdDeviation="2" result="b"/><feFlood flood-opacity="0.161"/><feComposite operator="in" in2="b"/><feComposite in="SourceGraphic"/></filter></defs><g class="b" transform="matrix(1, 0, 0, 1, 0, 0)"><path class="a" d="M80.08,48.669H13.891a2.778,2.778,0,1,1,0-5.556H80.567a2.777,2.777,0,0,0,2.778-2.778A8.334,8.334,0,0,0,75.01,32h-63.9A11.112,11.112,0,0,0,0,43.113V98.676a11.112,11.112,0,0,0,11.113,11.113H80.08a8.6,8.6,0,0,0,8.821-8.334V57A8.6,8.6,0,0,0,80.08,48.669ZM72.232,84.785a5.556,5.556,0,1,1,5.556-5.556A5.557,5.557,0,0,1,72.232,84.785Z" transform="translate(0 -29)"/></g></svg>